<svg xmlns="http://www.w3.org/2000/svg" viewBox="0 0 500 500"><g id="freepik--background-complete--inject-82"><rect y="382.4" width="500" height="0.25" style="fill:#ebebeb"></rect><rect x="416.78" y="398.49" width="33.12" height="0.25" style="fill:#ebebeb"></rect><rect x="292.75" y="398.62" width="8.69" height="0.25" style="fill:#ebebeb"></rect><rect x="354.33" y="389.21" width="61.44" height="0.25" style="fill:#ebebeb"></rect><rect x="212.45" y="395.11" width="12.69" height="0.25" style="fill:#ebebeb"></rect><rect x="166.72" y="395.11" width="36.83" height="0.25" style="fill:#ebebeb"></rect><rect x="52.46" y="390.89" width="25.43" height="0.25" style="fill:#ebebeb"></rect><rect x="83.89" y="390.89" width="74.89" height="0.25" style="fill:#ebebeb"></rect><path d="M237,337.8H43.91a5.71,5.71,0,0,1-5.7-5.71V60.66A5.71,5.71,0,0,1,43.91,55H237a5.71,5.71,0,0,1,5.71,5.71V332.09A5.71,5.71,0,0,1,237,337.8ZM43.91,55.2a5.46,5.46,0,0,0-5.45,5.46V332.09a5.46,5.46,0,0,0,5.45,5.46H237a5.47,5.47,0,0,0,5.46-5.46V60.66A5.47,5.47,0,0,0,237,55.2Z" style="fill:#ebebeb"></path><path d="M453.31,337.8H260.21a5.72,5.72,0,0,1-5.71-5.71V60.66A5.72,5.72,0,0,1,260.21,55h193.1A5.71,5.71,0,0,1,459,60.66V332.09A5.71,5.71,0,0,1,453.31,337.8ZM260.21,55.2a5.47,5.47,0,0,0-5.46,5.46V332.09a5.47,5.47,0,0,0,5.46,5.46h193.1a5.47,5.47,0,0,0,5.46-5.46V60.66a5.47,5.47,0,0,0-5.46-5.46Z" style="fill:#ebebeb"></path><rect x="72.14" y="85.44" width="135.7" height="189.78" transform="translate(279.98 360.66) rotate(180)" style="fill:#e6e6e6"></rect><rect x="69.12" y="85.44" width="135.7" height="189.78" transform="translate(273.95 360.66) rotate(180)" style="fill:#f5f5f5"></rect><rect x="48.16" y="117.89" width="177.62" height="124.87" transform="translate(317.3 43.36) rotate(90)" style="fill:#fff"></rect><rect x="-13.13" y="179.19" width="177.62" height="2.28" transform="translate(256.01 104.65) rotate(90)" style="fill:#e6e6e6"></rect><rect x="71.36" y="151.05" width="131.22" height="8.16" transform="translate(273.95 310.26) rotate(180)" style="fill:#f5f5f5"></rect><path d="M63.22,75.37H213.74a.84.84,0,0,1,.83.84h0a.83.83,0,0,1-.83.83H63.22a.83.83,0,0,1-.83-.83h0A.84.84,0,0,1,63.22,75.37Z" style="fill:#e6e6e6"></path><path d="M58.22,76.21A4.17,4.17,0,1,0,62.39,72,4.17,4.17,0,0,0,58.22,76.21Z" style="fill:#e6e6e6"></path><path d="M206.71,80.88h0a1.14,1.14,0,0,0,1.13-1.13V77.33a1.13,1.13,0,0,0-1.13-1.12h0a1.12,1.12,0,0,0-1.12,1.12v2.42A1.13,1.13,0,0,0,206.71,80.88Z" style="fill:#e6e6e6"></path><path d="M75.79,80.88h0a1.14,1.14,0,0,0,1.13-1.13V77.33a1.13,1.13,0,0,0-1.13-1.12h0a1.12,1.12,0,0,0-1.12,1.12v2.42A1.13,1.13,0,0,0,75.79,80.88Z" style="fill:#e6e6e6"></path><path d="M84.84,76.21h96.39a21.35,21.35,0,0,1,21.35,21.35V230.33a0,0,0,0,1,0,0H63.49a0,0,0,0,1,0,0V97.56A21.35,21.35,0,0,1,84.84,76.21Z" transform="translate(266.07 306.54) rotate(180)" style="fill:#e0e0e0;opacity:0.5"></path><path d="M189.15,76.21A4.17,4.17,0,1,0,193.31,72,4.16,4.16,0,0,0,189.15,76.21Z" style="fill:#e6e6e6"></path><rect x="295.29" y="86.76" width="116.08" height="116.39" style="fill:#f0f0f0"></rect><rect x="411.37" y="86.76" width="2" height="116.39" transform="translate(824.74 289.91) rotate(180)" style="fill:#e0e0e0"></rect><rect x="305.54" y="94.11" width="95.58" height="101.69" rx="47.79" style="fill:#fff"></rect><rect x="332.92" y="123.24" width="40.83" height="43.44" rx="2.2" style="fill:#f5f5f5"></rect><rect x="184.87" y="319.12" width="26.78" height="59.39" transform="translate(396.52 697.64) rotate(180)" style="fill:#f0f0f0"></rect><rect x="74.42" y="378.51" width="132.09" height="3.76" transform="translate(280.93 760.78) rotate(180)" style="fill:#f0f0f0"></rect><rect x="69.28" y="319.12" width="115.59" height="59.39" style="fill:#f5f5f5"></rect><path d="M174.34,346.41H79.81a.5.5,0,0,1-.5-.5V326.43a.5.5,0,0,1,.5-.5h94.53a.51.51,0,0,1,.5.5v19.48A.5.5,0,0,1,174.34,346.41Zm-94-1h93.53V326.93H80.31Z" style="fill:#f0f0f0"></path><path d="M174.34,371.7H79.81a.5.5,0,0,1-.5-.5V351.72a.5.5,0,0,1,.5-.5h94.53a.51.51,0,0,1,.5.5V371.2A.5.5,0,0,1,174.34,371.7Zm-94-1h93.53V352.22H80.31Z" style="fill:#f0f0f0"></path><rect x="113.85" y="334.84" width="26.45" height="2.67" rx="1.18" transform="translate(254.14 672.35) rotate(180)" style="fill:#fff"></rect><rect x="113.85" y="360.13" width="26.45" height="2.67" rx="1.18" transform="translate(254.14 722.92) rotate(180)" style="fill:#fff"></rect><path d="M121.15,309.13s-.32,10-12.66,10-12.67-10-12.67-10Z" style="fill:#f5f5f5"></path><path d="M150,309.13s-.33,10-12.67,10-12.66-10-12.66-10Z" style="fill:#f5f5f5"></path><path d="M178.9,309.13s-.32,10-12.67,10-12.66-10-12.66-10Z" style="fill:#f5f5f5"></path><rect x="423.68" y="243.78" width="20.21" height="132.51" transform="translate(867.57 620.08) rotate(180)" style="fill:#f0f0f0"></rect><rect x="271.89" y="376.29" width="166.67" height="6.09" transform="translate(710.45 758.68) rotate(180)" style="fill:#f0f0f0"></rect><rect x="266.56" y="243.78" width="157.12" height="132.51" style="fill:#f5f5f5"></rect><rect x="277.48" y="291.67" width="135.28" height="31.52" style="fill:#f0f0f0"></rect><rect x="277.48" y="332.94" width="135.28" height="31.52" style="fill:#f0f0f0"></rect><rect x="304.05" y="289.51" width="82.13" height="4.32" rx="2.05" transform="translate(690.24 583.35) rotate(180)" style="fill:#f5f5f5"></rect><rect x="304.05" y="330.77" width="82.13" height="4.32" rx="2.05" transform="translate(690.24 665.87) rotate(180)" style="fill:#f5f5f5"></rect><rect x="277.48" y="250.41" width="135.28" height="31.52" style="fill:#f0f0f0"></rect><rect x="304.05" y="248.25" width="82.13" height="4.32" rx="2.05" transform="translate(690.24 500.83) rotate(180)" style="fill:#f5f5f5"></rect></g><g id="freepik--Shadow--inject-82"><ellipse id="freepik--path--inject-82" cx="250" cy="416.24" rx="193.89" ry="11.32" style="fill:#f5f5f5"></ellipse></g><g id="freepik--Programming--inject-82"><rect x="289.77" y="101.5" width="1" height="5.28" transform="translate(154.09 380.82) rotate(-83.53)" style="fill:#D3E3FC"></rect><rect x="272.9" y="93.66" width="1" height="17.13" transform="translate(141.03 362.37) rotate(-83.53)" style="fill:#D3E3FC"></rect><rect x="197.32" y="107.91" width="190.87" height="147.79" rx="4.9" transform="translate(22.35 -31.82) rotate(6.47)" style="fill:#D3E3FC"></rect><path d="M192.78,238l15.11-133.29a3.59,3.59,0,0,1,4-3.16l177.7,20.14a3.6,3.6,0,0,1,3.16,4L377.6,258.93a3.58,3.58,0,0,1-4,3.16l-177.7-20.15A3.58,3.58,0,0,1,192.78,238Z" style="fill:#263238;opacity:0.7000000000000001"></path><rect x="287.67" y="150.27" width="75.36" height="3.71" transform="translate(19.21 -35.68) rotate(6.47)" style="fill:#D3E3FC"></rect><rect x="294.68" y="157.27" width="79.84" height="3.71" transform="translate(20.06 -36.68) rotate(6.47)" style="fill:#D3E3FC"></rect><rect x="294.06" y="162.38" width="66.15" height="3.71" transform="translate(20.58 -35.81) rotate(6.47)" style="fill:#D3E3FC"></rect><rect x="293.41" y="167.87" width="59.25" height="3.71" transform="translate(21.18 -35.31) rotate(6.47)" style="fill:#D3E3FC"></rect><rect x="284.67" y="175.99" width="48.96" height="3.71" transform="translate(22 -33.7) rotate(6.47)" style="fill:#D3E3FC"></rect><rect x="290.35" y="194.71" width="52.57" height="3.71" transform="translate(24.16 -34.42) rotate(6.47)" style="fill:#D3E3FC"></rect><rect x="291.04" y="188.32" width="43.56" height="3.71" transform="translate(23.42 -34.03) rotate(6.47)" style="fill:#D3E3FC"></rect><rect x="291.7" y="182.69" width="47.97" height="3.71" transform="translate(22.8 -34.39) rotate(6.47)" style="fill:#D3E3FC"></rect><rect x="279.59" y="220.84" width="48.96" height="3.71" transform="translate(27.02 -32.84) rotate(6.47)" style="fill:#D3E3FC"></rect><rect x="285.26" y="239.56" width="52.57" height="3.71" transform="translate(29.18 -33.56) rotate(6.47)" style="fill:#D3E3FC"></rect><rect x="285.96" y="233.17" width="43.56" height="3.71" transform="matrix(0.99, 0.11, -0.11, 0.99, 28.44, -33.17)" style="fill:#D3E3FC"></rect><rect x="286.61" y="227.54" width="47.97" height="3.71" transform="translate(27.82 -33.53) rotate(6.47)" style="fill:#D3E3FC"></rect><rect x="215.9" y="112.33" width="39.76" height="3.71" transform="translate(14.36 -25.83) rotate(6.47)" style="fill:#fff"></rect><rect x="220.13" y="130.84" width="42.68" height="3.71" transform="translate(16.49 -26.36) rotate(6.47)" style="fill:#fff"></rect><rect x="220.82" y="124.55" width="35.37" height="3.71" transform="translate(15.76 -26.06) rotate(6.47)" style="fill:#fff"></rect><rect x="221.47" y="118.87" width="38.95" height="3.71" transform="translate(15.13 -26.38) rotate(6.47)" style="fill:#fff"></rect><rect x="288.35" y="212.35" width="52.57" height="3.71" transform="translate(26.13 -34.08) rotate(6.47)" style="fill:#D3E3FC"></rect><rect x="289.04" y="205.96" width="43.56" height="3.71" transform="translate(25.39 -33.69) rotate(6.47)" style="fill:#D3E3FC"></rect><rect x="289.7" y="200.33" width="47.97" height="3.71" transform="translate(24.77 -34.05) rotate(6.47)" style="fill:#D3E3FC"></rect></g><g id="freepik--JS--inject-82"><path d="M145.84,218.15l-38.76-14.52-6.81-40.82,32-26.31L171,151l6.81,40.83Zm-37.13-15.86,36.78,13.77,30.31-25-6.46-38.73-36.78-13.77-30.31,25Z" style="fill:#D3E3FC"></path><circle cx="132.39" cy="137.55" r="6.21" transform="translate(-56.48 165.36) rotate(-54.47)" style="fill:#D3E3FC"></circle><circle cx="145.66" cy="217.1" r="6.21" transform="translate(-115.67 209.48) rotate(-54.47)" style="fill:#D3E3FC"></circle><path d="M166.55,156.74a6.21,6.21,0,1,1,8.66-1.44A6.21,6.21,0,0,1,166.55,156.74Z" style="fill:#D3E3FC"></path><path d="M97.64,168.17a6.21,6.21,0,1,1,8.66-1.45A6.22,6.22,0,0,1,97.64,168.17Z" style="fill:#D3E3FC"></path><path d="M173.19,196.59a6.21,6.21,0,1,1,8.67-1.45A6.21,6.21,0,0,1,173.19,196.59Z" style="fill:#D3E3FC"></path><path d="M104.29,208a6.21,6.21,0,1,1,8.66-1.44A6.2,6.2,0,0,1,104.29,208Z" style="fill:#D3E3FC"></path><path d="M125.94,167l7.83-1.31,2.29,13.73a21.92,21.92,0,0,1,.33,6.71,7.66,7.66,0,0,1-2.45,4.34,10.45,10.45,0,0,1-5.68,2.56,13.94,13.94,0,0,1-6.1,0,7.62,7.62,0,0,1-3.76-2.49,11.53,11.53,0,0,1-2.17-4.69l7.29-2.27a8.85,8.85,0,0,0,.71,2.44,2.77,2.77,0,0,0,1.15,1.15,2.17,2.17,0,0,0,1.33.12,2.13,2.13,0,0,0,1.76-1.3,6.61,6.61,0,0,0,.07-3.38Z" style="fill:#263238"></path><path d="M140.43,181.94l7.36-1.7a5.7,5.7,0,0,0,1.44,2.59,4.19,4.19,0,0,0,3.71,1,3.83,3.83,0,0,0,2.44-1.21,2.4,2.4,0,0,0,.61-2,2.36,2.36,0,0,0-1.16-1.62,10.19,10.19,0,0,0-4.25-.79q-5.33-.3-7.84-1.85a6.28,6.28,0,0,1-3-4.51,6.78,6.78,0,0,1,.52-3.87,7.58,7.58,0,0,1,2.94-3.29,16,16,0,0,1,6-2q4.85-.81,7.69.57a7.85,7.85,0,0,1,4,5.22l-7.29,1.66a3.49,3.49,0,0,0-4.37-2.62,3.19,3.19,0,0,0-2,.92,1.8,1.8,0,0,0-.46,1.52,1.44,1.44,0,0,0,.75,1,6.58,6.58,0,0,0,2.78.49,33.38,33.38,0,0,1,7.71,1,7.88,7.88,0,0,1,3.69,2.26,7.23,7.23,0,0,1,1.63,3.58,8.08,8.08,0,0,1-.6,4.7,8.39,8.39,0,0,1-3.24,3.74,15.33,15.33,0,0,1-5.91,2.08q-6.45,1.08-9.34-1A10,10,0,0,1,140.43,181.94Z" style="fill:#263238"></path></g></svg>